<mxfile host="Electron" agent="Mozilla/5.0 (Macintosh; Intel Mac OS X 10_15_7) AppleWebKit/537.36 (KHTML, like Gecko) draw.io/24.7.17 Chrome/128.0.6613.36 Electron/32.0.1 Safari/537.36" version="24.7.17">
  <diagram name="Pagina-1" id="c93yrmDR2Lz1OAYwtfC3">
    <mxGraphModel dx="1256" dy="2104" grid="1" gridSize="10" guides="1" tooltips="1" connect="1" arrows="1" fold="1" page="1" pageScale="1" pageWidth="827" pageHeight="1169" math="0" shadow="0">
      <root>
        <mxCell id="0" />
        <mxCell id="1" parent="0" />
        <mxCell id="38Y4V_pGdM4d1AlbZbtb-3" value="" style="endArrow=classic;html=1;rounded=0;exitX=1;exitY=0.5;exitDx=0;exitDy=0;entryX=0;entryY=0.5;entryDx=0;entryDy=0;" edge="1" parent="1" target="38Y4V_pGdM4d1AlbZbtb-7">
          <mxGeometry width="50" height="50" relative="1" as="geometry">
            <mxPoint x="160" y="440" as="sourcePoint" />
            <mxPoint x="310" y="440" as="targetPoint" />
          </mxGeometry>
        </mxCell>
        <mxCell id="38Y4V_pGdM4d1AlbZbtb-4" value="start = 1" style="text;html=1;align=center;verticalAlign=middle;whiteSpace=wrap;rounded=0;" vertex="1" parent="1">
          <mxGeometry x="210" y="410" width="60" height="30" as="geometry" />
        </mxCell>
        <mxCell id="38Y4V_pGdM4d1AlbZbtb-5" value="&lt;font style=&quot;font-size: 12px;&quot;&gt;START&lt;/font&gt;&lt;div style=&quot;&quot;&gt;&amp;nbsp;COMMUNICATION&lt;/div&gt;" style="ellipse;whiteSpace=wrap;html=1;aspect=fixed;" vertex="1" parent="1">
          <mxGeometry x="590" y="385" width="110" height="110" as="geometry" />
        </mxCell>
        <mxCell id="38Y4V_pGdM4d1AlbZbtb-6" value="&lt;font style=&quot;font-size: 12px;&quot;&gt;IDLE&lt;/font&gt;" style="ellipse;whiteSpace=wrap;html=1;aspect=fixed;" vertex="1" parent="1">
          <mxGeometry x="60" y="390" width="100" height="100" as="geometry" />
        </mxCell>
        <mxCell id="38Y4V_pGdM4d1AlbZbtb-7" value="RETREIVE" style="ellipse;whiteSpace=wrap;html=1;aspect=fixed;" vertex="1" parent="1">
          <mxGeometry x="320" y="385" width="110" height="110" as="geometry" />
        </mxCell>
        <mxCell id="38Y4V_pGdM4d1AlbZbtb-9" value="" style="endArrow=classic;html=1;rounded=0;exitX=1;exitY=0.5;exitDx=0;exitDy=0;" edge="1" parent="1">
          <mxGeometry width="50" height="50" relative="1" as="geometry">
            <mxPoint x="430" y="439.47" as="sourcePoint" />
            <mxPoint x="590" y="439" as="targetPoint" />
          </mxGeometry>
        </mxCell>
        <mxCell id="38Y4V_pGdM4d1AlbZbtb-11" value="" style="curved=1;endArrow=classic;html=1;rounded=0;exitX=0;exitY=0.5;exitDx=0;exitDy=0;entryX=0;entryY=0;entryDx=0;entryDy=0;" edge="1" parent="1" source="38Y4V_pGdM4d1AlbZbtb-6" target="38Y4V_pGdM4d1AlbZbtb-6">
          <mxGeometry width="50" height="50" relative="1" as="geometry">
            <mxPoint x="40" y="430" as="sourcePoint" />
            <mxPoint x="90" y="380" as="targetPoint" />
            <Array as="points">
              <mxPoint x="10" y="410" />
              <mxPoint x="40" y="380" />
            </Array>
          </mxGeometry>
        </mxCell>
        <mxCell id="38Y4V_pGdM4d1AlbZbtb-12" value="start = 0" style="text;html=1;align=center;verticalAlign=middle;whiteSpace=wrap;rounded=0;" vertex="1" parent="1">
          <mxGeometry x="10" y="355" width="60" height="30" as="geometry" />
        </mxCell>
        <mxCell id="38Y4V_pGdM4d1AlbZbtb-13" value="\ en_rd = 1" style="text;html=1;align=center;verticalAlign=middle;whiteSpace=wrap;rounded=0;" vertex="1" parent="1">
          <mxGeometry x="345" y="500" width="60" height="30" as="geometry" />
        </mxCell>
        <mxCell id="38Y4V_pGdM4d1AlbZbtb-14" value="\ WR = 1" style="text;html=1;align=center;verticalAlign=middle;whiteSpace=wrap;rounded=0;" vertex="1" parent="1">
          <mxGeometry x="615" y="495" width="60" height="30" as="geometry" />
        </mxCell>
        <mxCell id="38Y4V_pGdM4d1AlbZbtb-15" value="" style="curved=1;endArrow=classic;html=1;rounded=0;entryX=0.5;entryY=0;entryDx=0;entryDy=0;exitX=0;exitY=0;exitDx=0;exitDy=0;" edge="1" parent="1" source="38Y4V_pGdM4d1AlbZbtb-5" target="38Y4V_pGdM4d1AlbZbtb-5">
          <mxGeometry width="50" height="50" relative="1" as="geometry">
            <mxPoint x="610" y="395" as="sourcePoint" />
            <mxPoint x="660" y="345" as="targetPoint" />
            <Array as="points">
              <mxPoint x="590" y="355" />
              <mxPoint x="640" y="340" />
            </Array>
          </mxGeometry>
        </mxCell>
        <mxCell id="38Y4V_pGdM4d1AlbZbtb-16" value="if TBE = &#39;1&#39;" style="text;html=1;align=center;verticalAlign=middle;whiteSpace=wrap;rounded=0;" vertex="1" parent="1">
          <mxGeometry x="580" y="320" width="60" height="30" as="geometry" />
        </mxCell>
        <mxCell id="38Y4V_pGdM4d1AlbZbtb-17" value="END&lt;div&gt;COMMUNICATION&lt;/div&gt;" style="ellipse;whiteSpace=wrap;html=1;aspect=fixed;" vertex="1" parent="1">
          <mxGeometry x="380" y="630" width="110" height="110" as="geometry" />
        </mxCell>
        <mxCell id="38Y4V_pGdM4d1AlbZbtb-18" value="" style="endArrow=classic;html=1;rounded=0;exitX=0;exitY=1;exitDx=0;exitDy=0;entryX=1;entryY=0;entryDx=0;entryDy=0;" edge="1" parent="1" source="38Y4V_pGdM4d1AlbZbtb-5" target="38Y4V_pGdM4d1AlbZbtb-17">
          <mxGeometry width="50" height="50" relative="1" as="geometry">
            <mxPoint x="450" y="590" as="sourcePoint" />
            <mxPoint x="500" y="540" as="targetPoint" />
          </mxGeometry>
        </mxCell>
        <mxCell id="38Y4V_pGdM4d1AlbZbtb-19" value="if TBE = &#39;0&#39;" style="text;html=1;align=center;verticalAlign=middle;whiteSpace=wrap;rounded=0;rotation=309;" vertex="1" parent="1">
          <mxGeometry x="490" y="550" width="60" height="30" as="geometry" />
        </mxCell>
        <mxCell id="38Y4V_pGdM4d1AlbZbtb-20" value="\ WR = 0" style="text;html=1;align=center;verticalAlign=middle;whiteSpace=wrap;rounded=0;" vertex="1" parent="1">
          <mxGeometry x="405" y="750" width="60" height="30" as="geometry" />
        </mxCell>
        <mxCell id="38Y4V_pGdM4d1AlbZbtb-21" value="INCR&lt;div&gt;COUNTER&lt;/div&gt;" style="ellipse;whiteSpace=wrap;html=1;aspect=fixed;" vertex="1" parent="1">
          <mxGeometry x="120" y="630" width="110" height="110" as="geometry" />
        </mxCell>
        <mxCell id="38Y4V_pGdM4d1AlbZbtb-22" value="" style="endArrow=classic;html=1;rounded=0;exitX=0;exitY=0.5;exitDx=0;exitDy=0;entryX=1;entryY=0.5;entryDx=0;entryDy=0;" edge="1" parent="1" source="38Y4V_pGdM4d1AlbZbtb-17" target="38Y4V_pGdM4d1AlbZbtb-21">
          <mxGeometry width="50" height="50" relative="1" as="geometry">
            <mxPoint x="320" y="550" as="sourcePoint" />
            <mxPoint x="370" y="500" as="targetPoint" />
          </mxGeometry>
        </mxCell>
        <mxCell id="38Y4V_pGdM4d1AlbZbtb-23" value="" style="endArrow=classic;html=1;rounded=0;exitX=1;exitY=0;exitDx=0;exitDy=0;entryX=0;entryY=1;entryDx=0;entryDy=0;" edge="1" parent="1" source="38Y4V_pGdM4d1AlbZbtb-21" target="38Y4V_pGdM4d1AlbZbtb-7">
          <mxGeometry width="50" height="50" relative="1" as="geometry">
            <mxPoint x="320" y="550" as="sourcePoint" />
            <mxPoint x="370" y="500" as="targetPoint" />
          </mxGeometry>
        </mxCell>
        <mxCell id="38Y4V_pGdM4d1AlbZbtb-24" value="if TBE = &#39;1&#39;" style="text;html=1;align=center;verticalAlign=middle;whiteSpace=wrap;rounded=0;" vertex="1" parent="1">
          <mxGeometry x="285" y="650" width="60" height="30" as="geometry" />
        </mxCell>
        <mxCell id="38Y4V_pGdM4d1AlbZbtb-25" value="\ en_count = 1&lt;div&gt;\ uart_rst = 1&lt;/div&gt;" style="text;html=1;align=center;verticalAlign=middle;whiteSpace=wrap;rounded=0;" vertex="1" parent="1">
          <mxGeometry x="132.5" y="750" width="85" height="30" as="geometry" />
        </mxCell>
        <mxCell id="38Y4V_pGdM4d1AlbZbtb-26" value="" style="curved=1;endArrow=classic;html=1;rounded=0;entryX=0.5;entryY=1;entryDx=0;entryDy=0;exitX=0;exitY=1;exitDx=0;exitDy=0;" edge="1" parent="1" source="38Y4V_pGdM4d1AlbZbtb-17" target="38Y4V_pGdM4d1AlbZbtb-6">
          <mxGeometry width="50" height="50" relative="1" as="geometry">
            <mxPoint x="290" y="1010" as="sourcePoint" />
            <mxPoint x="230" y="950" as="targetPoint" />
            <Array as="points">
              <mxPoint x="270" y="840" />
              <mxPoint x="110" y="850" />
              <mxPoint x="60" y="710" />
            </Array>
          </mxGeometry>
        </mxCell>
        <mxCell id="38Y4V_pGdM4d1AlbZbtb-27" value="if count = &quot;111&quot;" style="text;html=1;align=center;verticalAlign=middle;whiteSpace=wrap;rounded=0;" vertex="1" parent="1">
          <mxGeometry x="120" y="850" width="110" height="30" as="geometry" />
        </mxCell>
      </root>
    </mxGraphModel>
  </diagram>
</mxfile>
